# xmcd CD database file
#
# Track frame offsets:
#	150
#	19950
#	39722
#	68264
#	82822
#	101534
#	116944
#	133819
#	165519
#	186738
#	208325
#	224550
#	246899
#
# Disc length: 3621 seconds
#
# Revision: 0
# Processed by: cddbd v1.5PL3 Copyright (c) Steve Scherf et al.
# Submitted via: CDex 1.50
#
DISCID=c30e230d
DTITLE=Helle Hansen - Heart Core
DYEAR=2003
DGENRE=Jazz
TTITLE0=For Good
TTITLE1=Are You On My Side?
TTITLE2=Strawberry Spring
TTITLE3=Sweeter
TTITLE4=Way Too Fast For Me
TTITLE5=Wanna Wake Up Next To You
TTITLE6=Look At the Good Things You've Got
TTITLE7=Keep This Sunlight From My Pores
TTITLE8=This Doesn't Mean You're Not In My Heart
TTITLE9=St Elsewhere
TTITLE10=Gnarled Trees
TTITLE11=Let It Rain
TTITLE12=Come Home For Christmas
EXTD=YEAR: 2003
EXTT0=
EXTT1=
EXTT2=
EXTT3=
EXTT4=
EXTT5=
EXTT6=
EXTT7=
EXTT8=
EXTT9=
EXTT10=
EXTT11=
EXTT12=
PLAYORDER=
